<svg width="1400" height="2930" viewBox="0 0 1400 2930" xmlns="http://www.w3.org/2000/svg" xmlns:xlink="http://www.w3.org/1999/xlink"  font-family="'Segoe UI', Roboto, 'Helvetica Neue', Arial, sans-serif"><defs><style>
                    .bg{fill:#fff} .title-box{fill:#007bff} .title-text{font-size:48px;font-weight:700;fill:#fff;text-anchor:middle;font-family:'Trebuchet MS',sans-serif}
                    .section-title{font-size:28px;font-weight:700;fill:#444;font-family:'Trebuchet MS',sans-serif} .pattern-text{font-size:16px;font-weight:600;fill:#007bff}
                    .pattern-count{font-size:14px;fill:#777} .word-text{font-size:15px;fill:#333} .common-pattern-box{fill:#f4f4f9;stroke:#dee2e6;stroke-width:1px}
                    .common-pattern-text{font-size:16px;fill:#333;text-anchor:middle} .common-pattern-count{font-size:14px;fill:#e63946;font-weight:700;text-anchor:middle}
                    .footer-text{font-size:12px;fill:#ccc;text-anchor:middle} .freq-box{fill:#f4f4f9} .legend-text{font-size:14px;fill:#777;font-style:italic}
                    .freq-count,.freq-pattern{font-size:15px;font-family:'Consolas','Menlo',monospace;dominant-baseline:middle} .freq-count{fill:#333;text-anchor:end}
                    .freq-pattern{fill:#007bff;font-weight:600;text-anchor:start}
                    </style><filter id="shadow" x="-20%" y="-20%" width="140%" height="140%"><feGaussianBlur in="SourceAlpha" stdDeviation="3"/><feOffset dx="2" dy="2" result="offsetblur"/><feMerge><feMergeNode/><feMergeNode in="SourceGraphic"/></feMerge></filter>
                    <symbol id="checkmark" viewBox="0 0 12 12"><path d="M2 6 l3 4 l6 -7" stroke="#28a745" stroke-width="2" fill="none" stroke-linecap="round" stroke-linejoin="round"/></symbol></defs>
                    <rect x="0" y="0" width="1400" height="2930" class="bg"/><rect x="0" y="0" width="1400" height="100" class="title-box"/>
                    <text x="700" y="65" class="title-text">Skribbl.io Pattern Cheat Sheet</text><g transform="translate(50, 0)"><g transform="translate(0, 150)"><text x="0" y="0" class="section-title">Guaranteed Wins (Unique Patterns) — 49</text><line x1="0" y1="15" x2="627" y2="15" stroke="#007bff" stroke-width="2"/><g transform="translate(0, 50)"><g transform="translate(0, 0)"><text y="0"><tspan class="pattern-text">1-5</tspan><tspan class="pattern-count"> (Count: 1)</tspan></text><text y="25" class="word-text">T-shirt</text></g><g transform="translate(320, 0)"><text y="0"><tspan class="pattern-text">2 7</tspan><tspan class="pattern-count"> (Count: 1)</tspan></text><text y="25" class="word-text">Ed Sheeran</text></g><g transform="translate(640, 0)"><text y="0"><tspan class="pattern-text">2-2</tspan><tspan class="pattern-count"> (Count: 1)</tspan></text><text y="25" class="word-text">yo-yo</text></g><g transform="translate(960, 0)"><text y="0"><tspan class="pattern-text">3 2 3</tspan><tspan class="pattern-count"> (Count: 1)</tspan></text><text y="25" class="word-text">tug of war</text></g><g transform="translate(0, 60)"><text y="0"><tspan class="pattern-text">3 2 4</tspan><tspan class="pattern-count"> (Count: 1)</tspan></text><text y="25" class="word-text">pot of gold</text></g><g transform="translate(320, 60)"><text y="0"><tspan class="pattern-text">3 3 4</tspan><tspan class="pattern-count"> (Count: 1)</tspan></text><text y="25" class="word-text">Yin and Yang</text></g><g transform="translate(640, 60)"><text y="0"><tspan class="pattern-text">3 3 7</tspan><tspan class="pattern-count"> (Count: 1)</tspan></text><text y="25" class="word-text">hot air balloon</text></g><g transform="translate(960, 60)"><text y="0"><tspan class="pattern-text">3 4-2</tspan><tspan class="pattern-count"> (Count: 1)</tspan></text><text y="25" class="word-text">Kim Jong-un</text></g><g transform="translate(0, 120)"><text y="0"><tspan class="pattern-text">3 5 4</tspan><tspan class="pattern-count"> (Count: 1)</tspan></text><text y="25" class="word-text">ice cream shop</text></g><g transform="translate(320, 120)"><text y="0"><tspan class="pattern-text">3 5 5</tspan><tspan class="pattern-count"> (Count: 1)</tspan></text><text y="25" class="word-text">ice cream truck</text></g><g transform="translate(640, 120)"><text y="0"><tspan class="pattern-text">3 9</tspan><tspan class="pattern-count"> (Count: 1)</tspan></text><text y="25" class="word-text">hot chocolate</text></g><g transform="translate(960, 120)"><text y="0"><tspan class="pattern-text">3 10</tspan><tspan class="pattern-count"> (Count: 1)</tspan></text><text y="25" class="word-text">car dealership</text></g><g transform="translate(0, 180)"><text y="0"><tspan class="pattern-text">3 11</tspan><tspan class="pattern-count"> (Count: 1)</tspan></text><text y="25" class="word-text">air conditioner</text></g><g transform="translate(320, 180)"><text y="0"><tspan class="pattern-text">3-3</tspan><tspan class="pattern-count"> (Count: 1)</tspan></text><text y="25" class="word-text">Pac-Man</text></g><g transform="translate(640, 180)"><text y="0"><tspan class="pattern-text">4 2 3</tspan><tspan class="pattern-count"> (Count: 1)</tspan></text><text y="25" class="word-text">hole in one</text></g><g transform="translate(960, 180)"><text y="0"><tspan class="pattern-text">4 2 3 3</tspan><tspan class="pattern-count"> (Count: 1)</tspan></text><text y="25" class="word-text">corn on the cob</text></g><g transform="translate(0, 240)"><text y="0"><tspan class="pattern-text">4 2 5</tspan><tspan class="pattern-count"> (Count: 1)</tspan></text><text y="25" class="word-text">Puss in Boots</text></g><g transform="translate(320, 240)"><text y="0"><tspan class="pattern-text">4 2 6</tspan><tspan class="pattern-count"> (Count: 1)</tspan></text><text y="25" class="word-text">Gulf of Mexico</text></g><g transform="translate(640, 240)"><text y="0"><tspan class="pattern-text">4 3 4</tspan><tspan class="pattern-count"> (Count: 1)</tspan></text><text y="25" class="word-text">Finn and Jake</text></g><g transform="translate(960, 240)"><text y="0"><tspan class="pattern-text">4 3 5</tspan><tspan class="pattern-count"> (Count: 1)</tspan></text><text y="25" class="word-text">fish and chips</text></g><g transform="translate(0, 300)"><text y="0"><tspan class="pattern-text">4 8</tspan><tspan class="pattern-count"> (Count: 1)</tspan></text><text y="25" class="word-text">rock climbing</text></g><g transform="translate(320, 300)"><text y="0"><tspan class="pattern-text">4 12</tspan><tspan class="pattern-count"> (Count: 1)</tspan></text><text y="25" class="word-text">fire extinguisher</text></g><g transform="translate(640, 300)"><text y="0"><tspan class="pattern-text">4-1</tspan><tspan class="pattern-count"> (Count: 1)</tspan></text><text y="25" class="word-text">Wall-e</text></g><g transform="translate(960, 300)"><text y="0"><tspan class="pattern-text">4-1-7</tspan><tspan class="pattern-count"> (Count: 1)</tspan></text><text y="25" class="word-text">Jack-o-lantern</text></g><g transform="translate(0, 360)"><text y="0"><tspan class="pattern-text">5 2</tspan><tspan class="pattern-count"> (Count: 1)</tspan></text><text y="25" class="word-text">Among Us</text></g><g transform="translate(320, 360)"><text y="0"><tspan class="pattern-text">5 2 4</tspan><tspan class="pattern-count"> (Count: 1)</tspan></text><text y="25" class="word-text">Tower of Pisa</text></g><g transform="translate(640, 360)"><text y="0"><tspan class="pattern-text">5 3 5</tspan><tspan class="pattern-count"> (Count: 1)</tspan></text><text y="25" class="word-text">black and white</text></g><g transform="translate(960, 360)"><text y="0"><tspan class="pattern-text">5 3 6</tspan><tspan class="pattern-count"> (Count: 1)</tspan></text><text y="25" class="word-text">Romeo and Juliet</text></g><g transform="translate(0, 420)"><text y="0"><tspan class="pattern-text">5 7 4</tspan><tspan class="pattern-count"> (Count: 1)</tspan></text><text y="25" class="word-text">Great Barrier Reef</text></g><g transform="translate(320, 420)"><text y="0"><tspan class="pattern-text">5-4</tspan><tspan class="pattern-count"> (Count: 1)</tspan></text><text y="25" class="word-text">Notre-Dame</text></g><g transform="translate(640, 420)"><text y="0"><tspan class="pattern-text">5-5</tspan><tspan class="pattern-count"> (Count: 1)</tspan></text><text y="25" class="word-text">color-blind</text></g><g transform="translate(960, 420)"><text y="0"><tspan class="pattern-text">6 2</tspan><tspan class="pattern-count"> (Count: 1)</tspan></text><text y="25" class="word-text">thumbs up</text></g><g transform="translate(0, 480)"><text y="0"><tspan class="pattern-text">6 2 7</tspan><tspan class="pattern-count"> (Count: 1)</tspan></text><text y="25" class="word-text">Statue of Liberty</text></g><g transform="translate(320, 480)"><text y="0"><tspan class="pattern-text">6 3 4</tspan><tspan class="pattern-count"> (Count: 1)</tspan></text><text y="25" class="word-text">Winnie the Pooh</text></g><g transform="translate(640, 480)"><text y="0"><tspan class="pattern-text">6 5 5</tspan><tspan class="pattern-count"> (Count: 1)</tspan></text><text y="25" class="word-text">Sydney Opera House</text></g><g transform="translate(960, 480)"><text y="0"><tspan class="pattern-text">6 8</tspan><tspan class="pattern-count"> (Count: 1)</tspan></text><text y="25" class="word-text">mashed potatoes</text></g><g transform="translate(0, 540)"><text y="0"><tspan class="pattern-text">6 10</tspan><tspan class="pattern-count"> (Count: 1)</tspan></text><text y="25" class="word-text">George Washington</text></g><g transform="translate(320, 540)"><text y="0"><tspan class="pattern-text">7 3 4</tspan><tspan class="pattern-count"> (Count: 1)</tspan></text><text y="25" class="word-text">Phineas and Ferb</text></g><g transform="translate(640, 540)"><text y="0"><tspan class="pattern-text">7 8</tspan><tspan class="pattern-count"> (Count: 1)</tspan></text><text y="25" class="word-text">fashion designer</text></g><g transform="translate(960, 540)"><text y="0"><tspan class="pattern-text">7 9</tspan><tspan class="pattern-count"> (Count: 1)</tspan></text><text y="25" class="word-text">combine harvester</text></g><g transform="translate(0, 600)"><text y="0"><tspan class="pattern-text">7 11</tspan><tspan class="pattern-count"> (Count: 1)</tspan></text><text y="25" class="word-text">William Shakespeare</text></g><g transform="translate(320, 600)"><text y="0"><tspan class="pattern-text">8 2 5</tspan><tspan class="pattern-count"> (Count: 1)</tspan></text><text y="25" class="word-text">Leonardo da Vinci</text></g><g transform="translate(640, 600)"><text y="0"><tspan class="pattern-text">9 6</tspan><tspan class="pattern-count"> (Count: 1)</tspan></text><text y="25" class="word-text">Christmas Island</text></g><g transform="translate(960, 600)"><text y="0"><tspan class="pattern-text">9 7</tspan><tspan class="pattern-count"> (Count: 1)</tspan></text><text y="25" class="word-text">Lightning McQueen</text></g><g transform="translate(0, 660)"><text y="0"><tspan class="pattern-text">10 4</tspan><tspan class="pattern-count"> (Count: 1)</tspan></text><text y="25" class="word-text">retirement home</text></g><g transform="translate(320, 660)"><text y="0"><tspan class="pattern-text">10 5</tspan><tspan class="pattern-count"> (Count: 1)</tspan></text><text y="25" class="word-text">demolition derby</text></g><g transform="translate(640, 660)"><text y="0"><tspan class="pattern-text">10 8</tspan><tspan class="pattern-count"> (Count: 1)</tspan></text><text y="25" class="word-text">friendship bracelet</text></g><g transform="translate(960, 660)"><text y="0"><tspan class="pattern-text">14</tspan><tspan class="pattern-count"> (Count: 1)</tspan></text><text y="25" class="word-text">multiplication</text></g><g transform="translate(0, 720)"><text y="0"><tspan class="pattern-text">15</tspan><tspan class="pattern-count"> (Count: 1)</tspan></text><text y="25" class="word-text">procrastination</text></g></g></g><g transform="translate(0, 1030)"><text x="0" y="0" class="section-title">High Probability Guesses (Rare Patterns) — 10</text><line x1="0" y1="15" x2="742.5000000000001" y2="15" stroke="#28a745" stroke-width="2"/><g transform="translate(0, 50)"><g transform="translate(0, 0)"><text><tspan class="pattern-text">1-3</tspan><tspan class="pattern-count"> (Count: 2)</tspan></text><text y="25" class="word-text">T-rex</text><text y="45" class="word-text">x-ray</text></g><g transform="translate(430, 0)"><text><tspan class="pattern-text">3 8</tspan><tspan class="pattern-count"> (Count: 3)</tspan></text><text y="25" class="word-text">Mr. Meeseeks</text><text y="45" class="word-text">The Avengers</text><text y="65" class="word-text">bus terminal</text></g><g transform="translate(860, 0)"><text><tspan class="pattern-text">4 10</tspan><tspan class="pattern-count"> (Count: 2)</tspan></text><text y="25" class="word-text">Fred Flintstone</text><text y="45" class="word-text">Mark Zuckerberg</text></g><g transform="translate(0, 80)"><text><tspan class="pattern-text">4-3</tspan><tspan class="pattern-count"> (Count: 2)</tspan></text><text y="25" class="word-text">Band-Aid</text><text y="45" class="word-text">Kool-Aid</text></g><g transform="translate(860, 80)"><text><tspan class="pattern-text">5 9</tspan><tspan class="pattern-count"> (Count: 2)</tspan></text><text y="25" class="word-text">Crash Bandicoot</text><text y="45" class="word-text">Queen Elizabeth</text></g><g transform="translate(430, 100)"><text><tspan class="pattern-text">6 9</tspan><tspan class="pattern-count"> (Count: 2)</tspan></text><text y="25" class="word-text">flight attendant</text><text y="45" class="word-text">pencil sharpener</text></g><g transform="translate(0, 160)"><text><tspan class="pattern-text">7 6</tspan><tspan class="pattern-count"> (Count: 3)</tspan></text><text y="25" class="word-text">Michael Jordan</text><text y="45" class="word-text">clothes hanger</text><text y="65" class="word-text">grilled cheese</text></g><g transform="translate(860, 160)"><text><tspan class="pattern-text">8 8</tspan><tspan class="pattern-count"> (Count: 3)</tspan></text><text y="25" class="word-text">Leonardo DiCaprio</text><text y="45" class="word-text">drinking fountain</text><text y="65" class="word-text">railroad crossing</text></g><g transform="translate(430, 180)"><text><tspan class="pattern-text">9 4</tspan><tspan class="pattern-count"> (Count: 3)</tspan></text><text y="25" class="word-text">Christmas tree</text><text y="45" class="word-text">satellite dish</text><text y="65" class="word-text">scrambled eggs</text></g><g transform="translate(0, 260)"><text><tspan class="pattern-text">10 6</tspan><tspan class="pattern-count"> (Count: 2)</tspan></text><text y="25" class="word-text">mechanical pencil</text><text y="45" class="word-text">windshield wipers</text></g></g></g><g transform="translate(0, 1470)"><text x="0" y="0" class="section-title">Most Common Patterns (Single Words) — 6</text><line x1="0" y1="15" x2="643.5" y2="15" stroke="#fd7e14" stroke-width="2"/><g transform="translate(0, 40)"><rect x="0" y="0" width="1300" height="150" rx="15" class="common-pattern-box"/><g transform="translate(0, 40)"><g transform="translate(100, 0)"><text class="common-pattern-text">5-Letter</text><text y="30" class="common-pattern-count">580</text><text y="50" class="common-pattern-count">times</text></g><g transform="translate(300, 0)"><text class="common-pattern-text">6-Letter</text><text y="30" class="common-pattern-count">561</text><text y="50" class="common-pattern-count">times</text></g><g transform="translate(500, 0)"><text class="common-pattern-text">4-Letter</text><text y="30" class="common-pattern-count">519</text><text y="50" class="common-pattern-count">times</text></g><g transform="translate(700, 0)"><text class="common-pattern-text">7-Letter</text><text y="30" class="common-pattern-count">445</text><text y="50" class="common-pattern-count">times</text></g><g transform="translate(900, 0)"><text class="common-pattern-text">8-Letter</text><text y="30" class="common-pattern-count">362</text><text y="50" class="common-pattern-count">times</text></g><g transform="translate(1100, 0)"><text class="common-pattern-text">9-Letter</text><text y="30" class="common-pattern-count">282</text><text y="50" class="common-pattern-count">times</text></g></g></g></g><g transform="translate(0, 1710)"><text x="0" y="0" class="section-title">Complete Pattern Frequency — 100</text><line x1="0" y1="15" x2="528" y2="15" stroke="#777" stroke-width="2"/><g transform="translate(0, 40)"><use href="#checkmark" x="0" y="-7" width="12" height="12"/><text x="20" y="5" class="legend-text">= Pattern is fully listed above</text></g><g transform="translate(0, 70)"><rect x="0" y="0" width="1300" height="800" rx="15" class="freq-box"/><g transform="translate(50, 40)"><g transform="translate(0, 0)"><text x="0" y="0" class="freq-count">580</text><text x="65" y="0" class="freq-pattern">5</text></g><g transform="translate(0, 30)"><text x="0" y="0" class="freq-count">561</text><text x="65" y="0" class="freq-pattern">6</text></g><g transform="translate(0, 60)"><text x="0" y="0" class="freq-count">519</text><text x="65" y="0" class="freq-pattern">4</text></g><g transform="translate(0, 90)"><text x="0" y="0" class="freq-count">445</text><text x="65" y="0" class="freq-pattern">7</text></g><g transform="translate(0, 120)"><text x="0" y="0" class="freq-count">362</text><text x="65" y="0" class="freq-pattern">8</text></g><g transform="translate(0, 150)"><text x="0" y="0" class="freq-count">282</text><text x="65" y="0" class="freq-pattern">9</text></g><g transform="translate(0, 180)"><text x="0" y="0" class="freq-count">186</text><text x="65" y="0" class="freq-pattern">3</text></g><g transform="translate(0, 210)"><text x="0" y="0" class="freq-count">135</text><text x="65" y="0" class="freq-pattern">10</text></g><g transform="translate(0, 240)"><text x="0" y="0" class="freq-count">55</text><text x="65" y="0" class="freq-pattern">11</text></g><g transform="translate(0, 270)"><text x="0" y="0" class="freq-count">49</text><text x="65" y="0" class="freq-pattern">4 4</text></g><g transform="translate(0, 300)"><text x="0" y="0" class="freq-count">41</text><text x="65" y="0" class="freq-pattern">5 4</text></g><g transform="translate(0, 330)"><text x="0" y="0" class="freq-count">33</text><text x="65" y="0" class="freq-pattern">5 5</text></g><g transform="translate(0, 360)"><text x="0" y="0" class="freq-count">31</text><text x="65" y="0" class="freq-pattern">6 4</text></g><g transform="translate(0, 390)"><text x="0" y="0" class="freq-count">29</text><text x="65" y="0" class="freq-pattern">4 5</text></g><g transform="translate(0, 420)"><text x="0" y="0" class="freq-count">23</text><text x="65" y="0" class="freq-pattern">5 6</text></g><g transform="translate(0, 450)"><text x="0" y="0" class="freq-count">23</text><text x="65" y="0" class="freq-pattern">6 5</text></g><g transform="translate(0, 480)"><text x="0" y="0" class="freq-count">22</text><text x="65" y="0" class="freq-pattern">5 3</text></g><g transform="translate(0, 510)"><text x="0" y="0" class="freq-count">21</text><text x="65" y="0" class="freq-pattern">3 4</text></g><g transform="translate(0, 540)"><text x="0" y="0" class="freq-count">18</text><text x="65" y="0" class="freq-pattern">12</text></g><g transform="translate(0, 570)"><text x="0" y="0" class="freq-count">16</text><text x="65" y="0" class="freq-pattern">4 6</text></g><g transform="translate(0, 600)"><text x="0" y="0" class="freq-count">15</text><text x="65" y="0" class="freq-pattern">3 5</text></g><g transform="translate(0, 630)"><text x="0" y="0" class="freq-count">14</text><text x="65" y="0" class="freq-pattern">5 7</text></g><g transform="translate(0, 660)"><text x="0" y="0" class="freq-count">13</text><text x="65" y="0" class="freq-pattern">6 3</text></g><g transform="translate(0, 690)"><text x="0" y="0" class="freq-count">13</text><text x="65" y="0" class="freq-pattern">7 7</text></g><g transform="translate(0, 720)"><text x="0" y="0" class="freq-count">12</text><text x="65" y="0" class="freq-pattern">7 4</text></g><g transform="translate(300, 0)"><text x="0" y="0" class="freq-count">11</text><text x="65" y="0" class="freq-pattern">3 3</text></g><g transform="translate(300, 30)"><text x="0" y="0" class="freq-count">10</text><text x="65" y="0" class="freq-pattern">4 3</text></g><g transform="translate(300, 60)"><text x="0" y="0" class="freq-count">10</text><text x="65" y="0" class="freq-pattern">8 4</text></g><g transform="translate(300, 90)"><text x="0" y="0" class="freq-count">9</text><text x="65" y="0" class="freq-pattern">6 6</text></g><g transform="translate(300, 120)"><text x="0" y="0" class="freq-count">9</text><text x="65" y="0" class="freq-pattern">6 7</text></g><g transform="translate(300, 150)"><text x="0" y="0" class="freq-count">9</text><text x="65" y="0" class="freq-pattern">7 5</text></g><g transform="translate(300, 180)"><text x="0" y="0" class="freq-count">8</text><text x="65" y="0" class="freq-pattern">3 6</text></g><g transform="translate(300, 210)"><text x="0" y="0" class="freq-count">8</text><text x="65" y="0" class="freq-pattern">4 7</text></g><g transform="translate(300, 240)"><text x="0" y="0" class="freq-count">7</text><text x="65" y="0" class="freq-pattern">7 3</text></g><g transform="translate(300, 270)"><text x="0" y="0" class="freq-count">7</text><text x="65" y="0" class="freq-pattern">13</text></g><g transform="translate(300, 300)"><text x="0" y="0" class="freq-count">6</text><text x="65" y="0" class="freq-pattern">3 7</text></g><g transform="translate(300, 330)"><text x="0" y="0" class="freq-count">5</text><text x="65" y="0" class="freq-pattern">4 2</text></g><g transform="translate(300, 360)"><text x="0" y="0" class="freq-count">4</text><text x="65" y="0" class="freq-pattern">5 8</text></g><g transform="translate(300, 390)"><text x="0" y="0" class="freq-count">4</text><text x="65" y="0" class="freq-pattern">8 3</text></g><g transform="translate(300, 420)"><text x="0" y="0" class="freq-count">4</text><text x="65" y="0" class="freq-pattern">8 5</text></g><g transform="translate(300, 450)"><text x="0" y="0" class="freq-count">4</text><text x="65" y="0" class="freq-pattern">8 6</text></g><g transform="translate(300, 480)"><text x="0" y="0" class="freq-count">3</text><text x="65" y="0" class="freq-pattern">3 8</text><use href="#checkmark" x="160" y="-6" width="12" height="12"/></g><g transform="translate(300, 510)"><text x="0" y="0" class="freq-count">3</text><text x="65" y="0" class="freq-pattern">7 6</text><use href="#checkmark" x="160" y="-6" width="12" height="12"/></g><g transform="translate(300, 540)"><text x="0" y="0" class="freq-count">3</text><text x="65" y="0" class="freq-pattern">8 8</text><use href="#checkmark" x="160" y="-6" width="12" height="12"/></g><g transform="translate(300, 570)"><text x="0" y="0" class="freq-count">3</text><text x="65" y="0" class="freq-pattern">9 4</text><use href="#checkmark" x="160" y="-6" width="12" height="12"/></g><g transform="translate(300, 600)"><text x="0" y="0" class="freq-count">2</text><text x="65" y="0" class="freq-pattern">1-3</text><use href="#checkmark" x="160" y="-6" width="12" height="12"/></g><g transform="translate(300, 630)"><text x="0" y="0" class="freq-count">2</text><text x="65" y="0" class="freq-pattern">4 10</text><use href="#checkmark" x="160" y="-6" width="12" height="12"/></g><g transform="translate(300, 660)"><text x="0" y="0" class="freq-count">2</text><text x="65" y="0" class="freq-pattern">4-3</text><use href="#checkmark" x="160" y="-6" width="12" height="12"/></g><g transform="translate(300, 690)"><text x="0" y="0" class="freq-count">2</text><text x="65" y="0" class="freq-pattern">5 9</text><use href="#checkmark" x="160" y="-6" width="12" height="12"/></g><g transform="translate(300, 720)"><text x="0" y="0" class="freq-count">2</text><text x="65" y="0" class="freq-pattern">6 9</text><use href="#checkmark" x="160" y="-6" width="12" height="12"/></g><g transform="translate(600, 0)"><text x="0" y="0" class="freq-count">2</text><text x="65" y="0" class="freq-pattern">10 6</text><use href="#checkmark" x="160" y="-6" width="12" height="12"/></g><g transform="translate(600, 30)"><text x="0" y="0" class="freq-count">1</text><text x="65" y="0" class="freq-pattern">1-5</text><use href="#checkmark" x="160" y="-6" width="12" height="12"/></g><g transform="translate(600, 60)"><text x="0" y="0" class="freq-count">1</text><text x="65" y="0" class="freq-pattern">2 7</text><use href="#checkmark" x="160" y="-6" width="12" height="12"/></g><g transform="translate(600, 90)"><text x="0" y="0" class="freq-count">1</text><text x="65" y="0" class="freq-pattern">2-2</text><use href="#checkmark" x="160" y="-6" width="12" height="12"/></g><g transform="translate(600, 120)"><text x="0" y="0" class="freq-count">1</text><text x="65" y="0" class="freq-pattern">3 2 3</text><use href="#checkmark" x="160" y="-6" width="12" height="12"/></g><g transform="translate(600, 150)"><text x="0" y="0" class="freq-count">1</text><text x="65" y="0" class="freq-pattern">3 2 4</text><use href="#checkmark" x="160" y="-6" width="12" height="12"/></g><g transform="translate(600, 180)"><text x="0" y="0" class="freq-count">1</text><text x="65" y="0" class="freq-pattern">3 3 4</text><use href="#checkmark" x="160" y="-6" width="12" height="12"/></g><g transform="translate(600, 210)"><text x="0" y="0" class="freq-count">1</text><text x="65" y="0" class="freq-pattern">3 3 7</text><use href="#checkmark" x="160" y="-6" width="12" height="12"/></g><g transform="translate(600, 240)"><text x="0" y="0" class="freq-count">1</text><text x="65" y="0" class="freq-pattern">3 4-2</text><use href="#checkmark" x="160" y="-6" width="12" height="12"/></g><g transform="translate(600, 270)"><text x="0" y="0" class="freq-count">1</text><text x="65" y="0" class="freq-pattern">3 5 4</text><use href="#checkmark" x="160" y="-6" width="12" height="12"/></g><g transform="translate(600, 300)"><text x="0" y="0" class="freq-count">1</text><text x="65" y="0" class="freq-pattern">3 5 5</text><use href="#checkmark" x="160" y="-6" width="12" height="12"/></g><g transform="translate(600, 330)"><text x="0" y="0" class="freq-count">1</text><text x="65" y="0" class="freq-pattern">3 9</text><use href="#checkmark" x="160" y="-6" width="12" height="12"/></g><g transform="translate(600, 360)"><text x="0" y="0" class="freq-count">1</text><text x="65" y="0" class="freq-pattern">3 10</text><use href="#checkmark" x="160" y="-6" width="12" height="12"/></g><g transform="translate(600, 390)"><text x="0" y="0" class="freq-count">1</text><text x="65" y="0" class="freq-pattern">3 11</text><use href="#checkmark" x="160" y="-6" width="12" height="12"/></g><g transform="translate(600, 420)"><text x="0" y="0" class="freq-count">1</text><text x="65" y="0" class="freq-pattern">3-3</text><use href="#checkmark" x="160" y="-6" width="12" height="12"/></g><g transform="translate(600, 450)"><text x="0" y="0" class="freq-count">1</text><text x="65" y="0" class="freq-pattern">4 2 3</text><use href="#checkmark" x="160" y="-6" width="12" height="12"/></g><g transform="translate(600, 480)"><text x="0" y="0" class="freq-count">1</text><text x="65" y="0" class="freq-pattern">4 2 3 3</text><use href="#checkmark" x="160" y="-6" width="12" height="12"/></g><g transform="translate(600, 510)"><text x="0" y="0" class="freq-count">1</text><text x="65" y="0" class="freq-pattern">4 2 5</text><use href="#checkmark" x="160" y="-6" width="12" height="12"/></g><g transform="translate(600, 540)"><text x="0" y="0" class="freq-count">1</text><text x="65" y="0" class="freq-pattern">4 2 6</text><use href="#checkmark" x="160" y="-6" width="12" height="12"/></g><g transform="translate(600, 570)"><text x="0" y="0" class="freq-count">1</text><text x="65" y="0" class="freq-pattern">4 3 4</text><use href="#checkmark" x="160" y="-6" width="12" height="12"/></g><g transform="translate(600, 600)"><text x="0" y="0" class="freq-count">1</text><text x="65" y="0" class="freq-pattern">4 3 5</text><use href="#checkmark" x="160" y="-6" width="12" height="12"/></g><g transform="translate(600, 630)"><text x="0" y="0" class="freq-count">1</text><text x="65" y="0" class="freq-pattern">4 8</text><use href="#checkmark" x="160" y="-6" width="12" height="12"/></g><g transform="translate(600, 660)"><text x="0" y="0" class="freq-count">1</text><text x="65" y="0" class="freq-pattern">4 12</text><use href="#checkmark" x="160" y="-6" width="12" height="12"/></g><g transform="translate(600, 690)"><text x="0" y="0" class="freq-count">1</text><text x="65" y="0" class="freq-pattern">4-1</text><use href="#checkmark" x="160" y="-6" width="12" height="12"/></g><g transform="translate(600, 720)"><text x="0" y="0" class="freq-count">1</text><text x="65" y="0" class="freq-pattern">4-1-7</text><use href="#checkmark" x="160" y="-6" width="12" height="12"/></g><g transform="translate(900, 0)"><text x="0" y="0" class="freq-count">1</text><text x="65" y="0" class="freq-pattern">5 2</text><use href="#checkmark" x="160" y="-6" width="12" height="12"/></g><g transform="translate(900, 30)"><text x="0" y="0" class="freq-count">1</text><text x="65" y="0" class="freq-pattern">5 2 4</text><use href="#checkmark" x="160" y="-6" width="12" height="12"/></g><g transform="translate(900, 60)"><text x="0" y="0" class="freq-count">1</text><text x="65" y="0" class="freq-pattern">5 3 5</text><use href="#checkmark" x="160" y="-6" width="12" height="12"/></g><g transform="translate(900, 90)"><text x="0" y="0" class="freq-count">1</text><text x="65" y="0" class="freq-pattern">5 3 6</text><use href="#checkmark" x="160" y="-6" width="12" height="12"/></g><g transform="translate(900, 120)"><text x="0" y="0" class="freq-count">1</text><text x="65" y="0" class="freq-pattern">5 7 4</text><use href="#checkmark" x="160" y="-6" width="12" height="12"/></g><g transform="translate(900, 150)"><text x="0" y="0" class="freq-count">1</text><text x="65" y="0" class="freq-pattern">5-4</text><use href="#checkmark" x="160" y="-6" width="12" height="12"/></g><g transform="translate(900, 180)"><text x="0" y="0" class="freq-count">1</text><text x="65" y="0" class="freq-pattern">5-5</text><use href="#checkmark" x="160" y="-6" width="12" height="12"/></g><g transform="translate(900, 210)"><text x="0" y="0" class="freq-count">1</text><text x="65" y="0" class="freq-pattern">6 2</text><use href="#checkmark" x="160" y="-6" width="12" height="12"/></g><g transform="translate(900, 240)"><text x="0" y="0" class="freq-count">1</text><text x="65" y="0" class="freq-pattern">6 2 7</text><use href="#checkmark" x="160" y="-6" width="12" height="12"/></g><g transform="translate(900, 270)"><text x="0" y="0" class="freq-count">1</text><text x="65" y="0" class="freq-pattern">6 3 4</text><use href="#checkmark" x="160" y="-6" width="12" height="12"/></g><g transform="translate(900, 300)"><text x="0" y="0" class="freq-count">1</text><text x="65" y="0" class="freq-pattern">6 5 5</text><use href="#checkmark" x="160" y="-6" width="12" height="12"/></g><g transform="translate(900, 330)"><text x="0" y="0" class="freq-count">1</text><text x="65" y="0" class="freq-pattern">6 8</text><use href="#checkmark" x="160" y="-6" width="12" height="12"/></g><g transform="translate(900, 360)"><text x="0" y="0" class="freq-count">1</text><text x="65" y="0" class="freq-pattern">6 10</text><use href="#checkmark" x="160" y="-6" width="12" height="12"/></g><g transform="translate(900, 390)"><text x="0" y="0" class="freq-count">1</text><text x="65" y="0" class="freq-pattern">7 3 4</text><use href="#checkmark" x="160" y="-6" width="12" height="12"/></g><g transform="translate(900, 420)"><text x="0" y="0" class="freq-count">1</text><text x="65" y="0" class="freq-pattern">7 8</text><use href="#checkmark" x="160" y="-6" width="12" height="12"/></g><g transform="translate(900, 450)"><text x="0" y="0" class="freq-count">1</text><text x="65" y="0" class="freq-pattern">7 9</text><use href="#checkmark" x="160" y="-6" width="12" height="12"/></g><g transform="translate(900, 480)"><text x="0" y="0" class="freq-count">1</text><text x="65" y="0" class="freq-pattern">7 11</text><use href="#checkmark" x="160" y="-6" width="12" height="12"/></g><g transform="translate(900, 510)"><text x="0" y="0" class="freq-count">1</text><text x="65" y="0" class="freq-pattern">8 2 5</text><use href="#checkmark" x="160" y="-6" width="12" height="12"/></g><g transform="translate(900, 540)"><text x="0" y="0" class="freq-count">1</text><text x="65" y="0" class="freq-pattern">9 6</text><use href="#checkmark" x="160" y="-6" width="12" height="12"/></g><g transform="translate(900, 570)"><text x="0" y="0" class="freq-count">1</text><text x="65" y="0" class="freq-pattern">9 7</text><use href="#checkmark" x="160" y="-6" width="12" height="12"/></g><g transform="translate(900, 600)"><text x="0" y="0" class="freq-count">1</text><text x="65" y="0" class="freq-pattern">10 4</text><use href="#checkmark" x="160" y="-6" width="12" height="12"/></g><g transform="translate(900, 630)"><text x="0" y="0" class="freq-count">1</text><text x="65" y="0" class="freq-pattern">10 5</text><use href="#checkmark" x="160" y="-6" width="12" height="12"/></g><g transform="translate(900, 660)"><text x="0" y="0" class="freq-count">1</text><text x="65" y="0" class="freq-pattern">10 8</text><use href="#checkmark" x="160" y="-6" width="12" height="12"/></g><g transform="translate(900, 690)"><text x="0" y="0" class="freq-count">1</text><text x="65" y="0" class="freq-pattern">14</text><use href="#checkmark" x="160" y="-6" width="12" height="12"/></g><g transform="translate(900, 720)"><text x="0" y="0" class="freq-count">1</text><text x="65" y="0" class="freq-pattern">15</text><use href="#checkmark" x="160" y="-6" width="12" height="12"/></g></g></g></g><g transform="translate(0, 2630)">
                    <text x="0" y="0" class="section-title">About This Cheat Sheet</text>
                    <line x1="0" y1="15" x2="363.00000000000006" y2="15" stroke="#007bff" stroke-width="2"/>
                    <text x="0" y="50" class="word-text" style="font-size: 16px;">
                        <tspan x="0" dy="0">• Total Unique Words/Phrases: 3686</tspan>
                        <tspan x="0" dy="1.5em">• Generated on: November 11, 2025</tspan>
                        <tspan x="0" dy="2em">• Considerable effort was put into making sure that the data is as accurate as possible but nothing is guaranteed!</tspan>
                        <tspan x="12" dy="1.2em">Note that if the latest update to skribbl.io is still back in November 9th, 2022, displayed as &quot;News&quot; on the home page,</tspan>
                        <tspan x="12" dy="1.2em">then this list should be pretty accurate.</tspan>
                        <tspan x="0" dy="2em">• Source &amp; Full List: 
                            <a xlink:href="https://github.com/Are-You-a-Person/skribbl-word-bank" fill="#007bff" style="text-decoration: underline;">
                                https://github.com/Are-You-a-Person/skribbl-word-bank
                            </a>
                        </tspan>
                    </text>
                </g></g>
                    <text x="700" y="2900" class="footer-text">Generated based on the analysis of skribbl_words_alphabetical_en.txt</text></svg>
