<svg width="1400" height="3000" xmlns="http://www.w3.org/2000/svg" xmlns:xlink="http://www.w3.org/1999/xlink" font-family="'Segoe UI', Roboto, 'Helvetica Neue', Arial, sans-serif">

  <!-- Defs for styles, filters, and symbols -->
  <defs>
    <style>
      .bg { fill: #F8F9FA; }
      .title-box { fill: #007BFF; }
      .title-text { font-size: 48px; font-weight: bold; fill: white; text-anchor: middle; font-family: 'Trebuchet MS', 'Lucida Sans Unicode', 'Lucida Grande', 'Lucida Sans', Arial, sans-serif; }
      .section-title { font-size: 28px; font-weight: bold; fill: #343A40; font-family: 'Trebuchet MS', sans-serif; }
      .pattern-group { transition: transform 0.2s; }
      .pattern-text { font-size: 16px; font-weight: 600; fill: #007BFF; }
      .pattern-count { font-size: 14px; fill: #6C757D; }
      .word-text { font-size: 15px; fill: #495057; }
      .common-pattern-box { fill: #f1f3f5; stroke: #dee2e6; stroke-width: 1px; }
      .common-pattern-text { font-size: 16px; fill: #212529; text-anchor: middle; }
      .common-pattern-count { font-size: 14px; fill: #e63946; font-weight: bold; text-anchor: middle; }
      .footer-text { font-size: 12px; fill: #adb5bd; text-anchor: middle; }
      .freq-box { fill: #e9ecef; }
      .freq-count { font-size: 15px; fill: #495057; text-anchor: end; font-family: 'Consolas', 'Menlo', monospace; }
      .freq-pattern { font-size: 15px; fill: #007BFF; font-weight: 600; text-anchor: start; font-family: 'Consolas', 'Menlo', monospace; }
      .legend-text { font-size: 14px; fill: #6c757d; font-style: italic; }
    </style>
    <filter id="shadow" x="-20%" y="-20%" width="140%" height="140%">
      <feGaussianBlur in="SourceAlpha" stdDeviation="3"/>
      <feOffset dx="2" dy="2" result="offsetblur"/>
      <feMerge>
        <feMergeNode/>
        <feMergeNode in="SourceGraphic"/>
      </feMerge>
    </filter>
    <symbol id="checkmark" viewBox="0 0 12 12">
      <path d="M2 6 l3 4 l6 -7" stroke="#28a745" stroke-width="2" fill="none" stroke-linecap="round" stroke-linejoin="round"/>
    </symbol>
  </defs>

  <!-- Background -->
  <rect x="0" y="0" width="1400" height="3000" class="bg"/>

  <!-- Header -->
  <rect x="0" y="0" width="1400" height="100" class="title-box" />
  <text x="700" y="65" class="title-text">Skribbl.io Pattern Cheat Sheet</text>

  <!-- Main Content Area -->
  <g transform="translate(50, 150)">

    <!-- Section: Guaranteed Wins -->
    <text x="0" y="0" class="section-title">Guaranteed Wins (Unique Patterns)</text>
    <line x1="0" y1="15" x2="600" y2="15" stroke="#007BFF" stroke-width="2"/>
    <g class="pattern-group" transform="translate(0, 50)">
      <text y="0"><tspan class="pattern-text">1-5</tspan><tspan class="pattern-count"> (Count: 1)</tspan></text><text y="25" class="word-text"> T-shirt</text>
      <text y="60"><tspan class="pattern-text">10 4</tspan><tspan class="pattern-count"> (Count: 1)</tspan></text><text y="85" class="word-text"> retirement home</text>
      <text y="120"><tspan class="pattern-text">10 5</tspan><tspan class="pattern-count"> (Count: 1)</tspan></text><text y="145" class="word-text"> demolition derby</text>
      <text y="180"><tspan class="pattern-text">10 8</tspan><tspan class="pattern-count"> (Count: 1)</tspan></text><text y="205" class="word-text"> friendship bracelet</text>
      <text y="240"><tspan class="pattern-text">14</tspan><tspan class="pattern-count"> (Count: 1)</tspan></text><text y="265" class="word-text"> multiplication</text>
      <text y="300"><tspan class="pattern-text">15</tspan><tspan class="pattern-count"> (Count: 1)</tspan></text><text y="325" class="word-text"> procrastination</text>
      <text y="360"><tspan class="pattern-text">2 7</tspan><tspan class="pattern-count"> (Count: 1)</tspan></text><text y="385" class="word-text"> Ed Sheeran</text>
      <text y="420"><tspan class="pattern-text">2-2</tspan><tspan class="pattern-count"> (Count: 1)</tspan></text><text y="445" class="word-text"> yo-yo</text>
      <text y="480"><tspan class="pattern-text">3 10</tspan><tspan class="pattern-count"> (Count: 1)</tspan></text><text y="505" class="word-text"> car dealership</text>
      <text y="540"><tspan class="pattern-text">3 11</tspan><tspan class="pattern-count"> (Count: 1)</tspan></text><text y="565" class="word-text"> air conditioner</text>
      <text y="600"><tspan class="pattern-text">3 2 3</tspan><tspan class="pattern-count"> (Count: 1)</tspan></text><text y="625" class="word-text"> tug of war</text>
      <text y="660"><tspan class="pattern-text">3 2 4</tspan><tspan class="pattern-count"> (Count: 1)</tspan></text><text y="685" class="word-text"> pot of gold</text>
      <text y="720"><tspan class="pattern-text">3 3 4</tspan><tspan class="pattern-count"> (Count: 1)</tspan></text><text y="745" class="word-text"> Yin and Yang</text>
    </g>
    <g class="pattern-group" transform="translate(320, 50)">
      <text y="0"><tspan class="pattern-text">3 3 7</tspan><tspan class="pattern-count"> (Count: 1)</tspan></text><text y="25" class="word-text"> hot air balloon</text>
      <text y="60"><tspan class="pattern-text">3 4-2</tspan><tspan class="pattern-count"> (Count: 1)</tspan></text><text y="85" class="word-text"> Kim Jong-un</text>
      <text y="120"><tspan class="pattern-text">3 5 4</tspan><tspan class="pattern-count"> (Count: 1)</tspan></text><text y="145" class="word-text"> ice cream shop</text>
      <text y="180"><tspan class="pattern-text">3 5 5</tspan><tspan class="pattern-count"> (Count: 1)</tspan></text><text y="205" class="word-text"> ice cream truck</text>
      <text y="240"><tspan class="pattern-text">3 9</tspan><tspan class="pattern-count"> (Count: 1)</tspan></text><text y="265" class="word-text"> hot chocolate</text>
      <text y="300"><tspan class="pattern-text">3-3</tspan><tspan class="pattern-count"> (Count: 1)</tspan></text><text y="325" class="word-text"> Pac-Man</text>
      <text y="360"><tspan class="pattern-text">4 12</tspan><tspan class="pattern-count"> (Count: 1)</tspan></text><text y="385" class="word-text"> fire extinguisher</text>
      <text y="420"><tspan class="pattern-text">4 2 3</tspan><tspan class="pattern-count"> (Count: 1)</tspan></text><text y="445" class="word-text"> hole in one</text>
      <text y="480"><tspan class="pattern-text">4 2 3 3</tspan><tspan class="pattern-count"> (Count: 1)</tspan></text><text y="505" class="word-text"> corn on the cob</text>
      <text y="540"><tspan class="pattern-text">4 2 5</tspan><tspan class="pattern-count"> (Count: 1)</tspan></text><text y="565" class="word-text"> Puss in Boots</text>
      <text y="600"><tspan class="pattern-text">4 2 6</tspan><tspan class="pattern-count"> (Count: 1)</tspan></text><text y="625" class="word-text"> Gulf of Mexico</text>
      <text y="660"><tspan class="pattern-text">4 3 4</tspan><tspan class="pattern-count"> (Count: 1)</tspan></text><text y="685" class="word-text"> Finn and Jake</text>
    </g>
    <g class="pattern-group" transform="translate(640, 50)">
      <text y="0"><tspan class="pattern-text">4 3 5</tspan><tspan class="pattern-count"> (Count: 1)</tspan></text><text y="25" class="word-text"> fish and chips</text>
      <text y="60"><tspan class="pattern-text">4 8</tspan><tspan class="pattern-count"> (Count: 1)</tspan></text><text y="85" class="word-text"> rock climbing</text>
      <text y="120"><tspan class="pattern-text">4-1</tspan><tspan class="pattern-count"> (Count: 1)</tspan></text><text y="145" class="word-text"> Wall-e</text>
      <text y="180"><tspan class="pattern-text">4-1-7</tspan><tspan class="pattern-count"> (Count: 1)</tspan></text><text y="205" class="word-text"> Jack-o-lantern</text>
      <text y="240"><tspan class="pattern-text">5 2</tspan><tspan class="pattern-count"> (Count: 1)</tspan></text><text y="265" class="word-text"> Among Us</text>
      <text y="300"><tspan class="pattern-text">5 2 4</tspan><tspan class="pattern-count"> (Count: 1)</tspan></text><text y="325" class="word-text"> Tower of Pisa</text>
      <text y="360"><tspan class="pattern-text">5 3 5</tspan><tspan class="pattern-count"> (Count: 1)</tspan></text><text y="385" class="word-text"> black and white</text>
      <text y="420"><tspan class="pattern-text">5 3 6</tspan><tspan class="pattern-count"> (Count: 1)</tspan></text><text y="445" class="word-text"> Romeo and Juliet</text>
      <text y="480"><tspan class="pattern-text">5 7 4</tspan><tspan class="pattern-count"> (Count: 1)</tspan></text><text y="505" class="word-text"> Great Barrier Reef</text>
      <text y="540"><tspan class="pattern-text">5-4</tspan><tspan class="pattern-count"> (Count: 1)</tspan></text><text y="565" class="word-text"> Notre-Dame</text>
      <text y="600"><tspan class="pattern-text">5-5</tspan><tspan class="pattern-count"> (Count: 1)</tspan></text><text y="625" class="word-text"> color-blind</text>
      <text y="660"><tspan class="pattern-text">6 10</tspan><tspan class="pattern-count"> (Count: 1)</tspan></text><text y="685" class="word-text"> George Washington</text>
    </g>
    <g class="pattern-group" transform="translate(960, 50)">
      <text y="0"><tspan class="pattern-text">6 2</tspan><tspan class="pattern-count"> (Count: 1)</tspan></text><text y="25" class="word-text"> thumbs up</text>
      <text y="60"><tspan class="pattern-text">6 2 7</tspan><tspan class="pattern-count"> (Count: 1)</tspan></text><text y="85" class="word-text"> Statue of Liberty</text>
      <text y="120"><tspan class="pattern-text">6 3 4</tspan><tspan class="pattern-count"> (Count: 1)</tspan></text><text y="145" class="word-text"> Winnie the Pooh</text>
      <text y="180"><tspan class="pattern-text">6 5 5</tspan><tspan class="pattern-count"> (Count: 1)</tspan></text><text y="205" class="word-text"> Sydney Opera House</text>
      <text y="240"><tspan class="pattern-text">6 8</tspan><tspan class="pattern-count"> (Count: 1)</tspan></text><text y="265" class="word-text"> mashed potatoes</text>
      <text y="300"><tspan class="pattern-text">7 11</tspan><tspan class="pattern-count"> (Count: 1)</tspan></text><text y="325" class="word-text"> William Shakespeare</text>
      <text y="360"><tspan class="pattern-text">7 3 4</tspan><tspan class="pattern-count"> (Count: 1)</tspan></text><text y="385" class="word-text"> Phineas and Ferb</text>
      <text y="420"><tspan class="pattern-text">7 8</tspan><tspan class="pattern-count"> (Count: 1)</tspan></text><text y="445" class="word-text"> fashion designer</text>
      <text y="480"><tspan class="pattern-text">7 9</tspan><tspan class="pattern-count"> (Count: 1)</tspan></text><text y="505" class="word-text"> combine harvester</text>
      <text y="540"><tspan class="pattern-text">8 2 5</tspan><tspan class="pattern-count"> (Count: 1)</tspan></text><text y="565" class="word-text"> Leonardo da Vinci</text>
      <text y="600"><tspan class="pattern-text">9 6</tspan><tspan class="pattern-count"> (Count: 1)</tspan></text><text y="625" class="word-text"> Christmas Island</text>
      <text y="660"><tspan class="pattern-text">9 7</tspan><tspan class="pattern-count"> (Count: 1)</tspan></text><text y="685" class="word-text"> Lightning McQueen</text>
    </g>

    <!-- Section: High Probability -->
    <g transform="translate(0, 850)">
        <text x="0" y="0" class="section-title">High Probability Guesses (Rare Patterns)</text>
        <line x1="0" y1="15" x2="600" y2="15" stroke="#28a745" stroke-width="2"/>
        <g class="pattern-group" transform="translate(0, 50)">
            <text><tspan class="pattern-text">1-3</tspan><tspan class="pattern-count"> (Count: 2)</tspan></text><text y="25" class="word-text"> T-rex</text><text y="45" class="word-text"> x-ray</text>
            <text y="80"><tspan class="pattern-text">10 6</tspan><tspan class="pattern-count"> (Count: 2)</tspan></text><text y="105" class="word-text"> mechanical pencil</text><text y="125" class="word-text"> windshield wipers</text>
            <text y="160"><tspan class="pattern-text">3 8</tspan><tspan class="pattern-count"> (Count: 3)</tspan></text><text y="185" class="word-text"> bus terminal</text><text y="205" class="word-text"> The Avengers</text><text y="225" class="word-text"> Mr. Meeseeks</text>
            <text y="260"><tspan class="pattern-text">4 10</tspan><tspan class="pattern-count"> (Count: 2)</tspan></text><text y="285" class="word-text"> Fred Flintstone</text><text y="305" class="word-text"> Mark Zuckerberg</text>
            <text y="340"><tspan class="pattern-text">4-3</tspan><tspan class="pattern-count"> (Count: 2)</tspan></text><text y="365" class="word-text"> Band-Aid</text><text y="385" class="word-text"> Kool-Aid</text>
        </g>
        <g class="pattern-group" transform="translate(320, 50)">
            <text><tspan class="pattern-text">5 9</tspan><tspan class="pattern-count"> (Count: 2)</tspan></text><text y="25" class="word-text"> Crash Bandicoot</text><text y="45" class="word-text"> Queen Elizabeth</text>
            <text y="80"><tspan class="pattern-text">6 9</tspan><tspan class="pattern-count"> (Count: 2)</tspan></text><text y="105" class="word-text"> flight attendant</text><text y="125" class="word-text"> pencil sharpener</text>
            <text y="160"><tspan class="pattern-text">7 6</tspan><tspan class="pattern-count"> (Count: 3)</tspan></text><text y="185" class="word-text"> clothes hanger</text><text y="205" class="word-text"> grilled cheese</text><text y="225" class="word-text"> Michael Jordan</text>
        </g>
        <g class="pattern-group" transform="translate(640, 50)">
            <text><tspan class="pattern-text">8 8</tspan><tspan class="pattern-count"> (Count: 3)</tspan></text><text y="25" class="word-text"> drinking fountain</text><text y="45" class="word-text"> Leonardo DiCaprio</text><text y="65" class="word-text"> railroad crossing</text>
            <text y="100"><tspan class="pattern-text">9 4</tspan><tspan class="pattern-count"> (Count: 3)</tspan></text><text y="125" class="word-text"> Christmas tree</text><text y="145" class="word-text"> satellite dish</text><text y="165" class="word-text"> scrambled eggs</text>
        </g>
    </g>
    
    <!-- Section: Common Patterns -->
    <g transform="translate(0, 1350)">
        <text x="0" y="0" class="section-title">Most Common Patterns (Single Words)</text>
        <line x1="0" y1="15" x2="600" y2="15" stroke="#fd7e14" stroke-width="2"/>
        <g transform="translate(0, 40)">
            <rect x="0" y="0" width="1300" height="150" rx="15" class="common-pattern-box" filter="url(#shadow)"/>
            <g transform="translate(100, 40)">
                <text class="common-pattern-text">5-Letter</text><text y="30" class="common-pattern-count">580</text><text y="50" class="common-pattern-count">times</text>
            </g>
            <g transform="translate(300, 40)">
                <text class="common-pattern-text">6-Letter</text><text y="30" class="common-pattern-count">561</text><text y="50" class="common-pattern-count">times</text>
            </g>
            <g transform="translate(500, 40)">
                <text class="common-pattern-text">4-Letter</text><text y="30" class="common-pattern-count">519</text><text y="50" class="common-pattern-count">times</text>
            </g>
            <g transform="translate(700, 40)">
                <text class="common-pattern-text">7-Letter</text><text y="30" class="common-pattern-count">445</text><text y="50" class="common-pattern-count">times</text>
            </g>
            <g transform="translate(900, 40)">
                <text class="common-pattern-text">8-Letter</text><text y="30" class="common-pattern-count">362</text><text y="50" class="common-pattern-count">times</text>
            </g>
            <g transform="translate(1100, 40)">
                <text class="common-pattern-text">9-Letter</text><text y="30" class="common-pattern-count">282</text><text y="50" class="common-pattern-count">times</text>
            </g>
        </g>
    </g>

    <!-- Section: Complete Frequency List -->
    <g transform="translate(0, 1600)">
      <text x="0" y="0" class="section-title">Complete Pattern Frequency</text>
      <line x1="0" y1="15" x2="600" y2="15" stroke="#6c757d" stroke-width="2"/>
      <g transform="translate(0, 40)">
        <use xlink:href="#checkmark" x="0" y="-7" width="12" height="12"/>
        <text x="20" y="5" class="legend-text">= Pattern is fully listed above</text>
      </g>
      <g transform="translate(0, 70)">
        <rect x="0" y="0" width="1300" height="950" rx="15" class="freq-box"/>
        <g transform="translate(50, 40)">
          <!-- Column 1 Data -->
          <text x="50" y="0" class="freq-count">580</text><text x="65" y="0" class="freq-pattern">5</text>
          <text x="50" y="30" class="freq-count">561</text><text x="65" y="30" class="freq-pattern">6</text>
          <text x="50" y="60" class="freq-count">519</text><text x="65" y="60" class="freq-pattern">4</text>
          <text x="50" y="90" class="freq-count">445</text><text x="65" y="90" class="freq-pattern">7</text>
          <text x="50" y="120" class="freq-count">362</text><text x="65" y="120" class="freq-pattern">8</text>
          <text x="50" y="150" class="freq-count">282</text><text x="65" y="150" class="freq-pattern">9</text>
          <text x="50" y="180" class="freq-count">186</text><text x="65" y="180" class="freq-pattern">3</text>
          <text x="50" y="210" class="freq-count">135</text><text x="65" y="210" class="freq-pattern">10</text>
          <text x="50" y="240" class="freq-count">55</text><text x="65" y="240" class="freq-pattern">11</text>
          <text x="50" y="270" class="freq-count">49</text><text x="65" y="270" class="freq-pattern">4 4</text>
          <text x="50" y="300" class="freq-count">41</text><text x="65" y="300" class="freq-pattern">5 4</text>
          <text x="50" y="330" class="freq-count">33</text><text x="65" y="330" class="freq-pattern">5 5</text>
          <text x="50" y="360" class="freq-count">31</text><text x="65" y="360" class="freq-pattern">6 4</text>
          <text x="50" y="390" class="freq-count">29</text><text x="65" y="390" class="freq-pattern">4 5</text>
          <text x="50" y="420" class="freq-count">23</text><text x="65" y="420" class="freq-pattern">6 5</text>
          <text x="50" y="450" class="freq-count">23</text><text x="65" y="450" class="freq-pattern">5 6</text>
          <text x="50" y="480" class="freq-count">22</text><text x="65" y="480" class="freq-pattern">5 3</text>
          <text x="50" y="510" class="freq-count">21</text><text x="65" y="510" class="freq-pattern">3 4</text>
          <text x="50" y="540" class="freq-count">18</text><text x="65" y="540" class="freq-pattern">12</text>
          <text x="50" y="570" class="freq-count">16</text><text x="65" y="570" class="freq-pattern">4 6</text>
          <text x="50" y="600" class="freq-count">15</text><text x="65" y="600" class="freq-pattern">3 5</text>
          <text x="50" y="630" class="freq-count">14</text><text x="65" y="630" class="freq-pattern">5 7</text>
          <text x="50" y="660" class="freq-count">13</text><text x="65" y="660" class="freq-pattern">7 7</text>
          <text x="50" y="690" class="freq-count">13</text><text x="65" y="690" class="freq-pattern">6 3</text>
          <text x="50" y="720" class="freq-count">12</text><text x="65" y="720" class="freq-pattern">7 4</text>
          <text x="50" y="750" class="freq-count">11</text><text x="65" y="750" class="freq-pattern">3 3</text>
          <text x="50" y="780" class="freq-count">10</text><text x="65" y="780" class="freq-pattern">8 4</text>
          <text x="50" y="810" class="freq-count">10</text><text x="65" y="810" class="freq-pattern">4 3</text>
          <text x="50" y="840" class="freq-count">9</text><text x="65" y="840" class="freq-pattern">7 5</text>
          <text x="50" y="870" class="freq-count">9</text><text x="65" y="870" class="freq-pattern">6 7</text>
          <!-- Column 2 Data -->
          <text x="350" y="0" class="freq-count">9</text><text x="365" y="0" class="freq-pattern">6 6</text>
          <text x="350" y="30" class="freq-count">8</text><text x="365" y="30" class="freq-pattern">4 7</text>
          <text x="350" y="60" class="freq-count">8</text><text x="365" y="60" class="freq-pattern">3 6</text>
          <text x="350" y="90" class="freq-count">7</text><text x="365" y="90" class="freq-pattern">7 3</text>
          <text x="350" y="120" class="freq-count">7</text><text x="365" y="120" class="freq-pattern">13</text>
          <text x="350" y="150" class="freq-count">6</text><text x="365" y="150" class="freq-pattern">3 7</text>
          <text x="350" y="180" class="freq-count">5</text><text x="365" y="180" class="freq-pattern">4 2</text>
          <text x="350" y="210" class="freq-count">4</text><text x="365" y="210" class="freq-pattern">8 6</text>
          <text x="350" y="240" class="freq-count">4</text><text x="365" y="240" class="freq-pattern">8 5</text>
          <text x="350" y="270" class="freq-count">4</text><text x="365" y="270" class="freq-pattern">8 3</text>
          <text x="350" y="300" class="freq-count">4</text><text x="365" y="300" class="freq-pattern">5 8</text>
          <text x="350" y="330" class="freq-count">3</text><text x="365" y="330" class="freq-pattern">9 4</text><use xlink:href="#checkmark" x="420" y="320" width="12" height="12"/>
          <text x="350" y="360" class="freq-count">3</text><text x="365" y="360" class="freq-pattern">8 8</text><use xlink:href="#checkmark" x="420" y="350" width="12" height="12"/>
          <text x="350" y="390" class="freq-count">3</text><text x="365" y="390" class="freq-pattern">7 6</text><use xlink:href="#checkmark" x="420" y="380" width="12" height="12"/>
          <text x="350" y="420" class="freq-count">3</text><text x="365" y="420" class="freq-pattern">3 8</text><use xlink:href="#checkmark" x="420" y="410" width="12" height="12"/>
          <text x="350" y="450" class="freq-count">2</text><text x="365" y="450" class="freq-pattern">6 9</text><use xlink:href="#checkmark" x="420" y="440" width="12" height="12"/>
          <text x="350" y="480" class="freq-count">2</text><text x="365" y="480" class="freq-pattern">5 9</text><use xlink:href="#checkmark" x="420" y="470" width="12" height="12"/>
          <text x="350" y="510" class="freq-count">2</text><text x="365" y="510" class="freq-pattern">4-3</text><use xlink:href="#checkmark" x="420" y="500" width="12" height="12"/>
          <text x="350" y="540" class="freq-count">2</text><text x="365" y="540" class="freq-pattern">4 10</text><use xlink:href="#checkmark" x="430" y="530" width="12" height="12"/>
          <text x="350" y="570" class="freq-count">2</text><text x="365" y="570" class="freq-pattern">10 6</text><use xlink:href="#checkmark" x="430" y="560" width="12" height="12"/>
          <text x="350" y="600" class="freq-count">2</text><text x="365" y="600" class="freq-pattern">1-3</text><use xlink:href="#checkmark" x="420" y="590" width="12" height="12"/>
          <text x="350" y="630" class="freq-count">1</text><text x="365" y="630" class="freq-pattern">9 7</text><use xlink:href="#checkmark" x="420" y="620" width="12" height="12"/>
          <text x="350" y="660" class="freq-count">1</text><text x="365" y="660" class="freq-pattern">9 6</text><use xlink:href="#checkmark" x="420" y="650" width="12" height="12"/>
          <text x="350" y="690" class="freq-count">1</text><text x="365" y="690" class="freq-pattern">8 2 5</text><use xlink:href="#checkmark" x="440" y="680" width="12" height="12"/>
          <text x="350" y="720" class="freq-count">1</text><text x="365" y="720" class="freq-pattern">7 9</text><use xlink:href="#checkmark" x="420" y="710" width="12" height="12"/>
          <text x="350" y="750" class="freq-count">1</text><text x="365" y="750" class="freq-pattern">7 8</text><use xlink:href="#checkmark" x="420" y="740" width="12" height="12"/>
          <text x="350" y="780" class="freq-count">1</text><text x="365" y="780" class="freq-pattern">7 3 4</text><use xlink:href="#checkmark" x="440" y="770" width="12" height="12"/>
          <text x="350" y="810" class="freq-count">1</text><text x="365" y="810" class="freq-pattern">7 11</text><use xlink:href="#checkmark" x="430" y="800" width="12" height="12"/>
          <text x="350" y="840" class="freq-count">1</text><text x="365" y="840" class="freq-pattern">6 8</text><use xlink:href="#checkmark" x="420" y="830" width="12" height="12"/>
          <text x="350" y="870" class="freq-count">1</text><text x="365" y="870" class="freq-pattern">6 5 5</text><use xlink:href="#checkmark" x="440" y="860" width="12" height="12"/>
          <!-- Column 3 Data -->
          <text x="650" y="0" class="freq-count">1</text><text x="665" y="0" class="freq-pattern">6 3 4</text><use xlink:href="#checkmark" x="740" y="-10" width="12" height="12"/>
          <text x="650" y="30" class="freq-count">1</text><text x="665" y="30" class="freq-pattern">6 2 7</text><use xlink:href="#checkmark" x="740" y="20" width="12" height="12"/>
          <text x="650" y="60" class="freq-count">1</text><text x="665" y="60" class="freq-pattern">6 2</text><use xlink:href="#checkmark" x="720" y="50" width="12" height="12"/>
          <text x="650" y="90" class="freq-count">1</text><text x="665" y="90" class="freq-pattern">6 10</text><use xlink:href="#checkmark" x="730" y="80" width="12" height="12"/>
          <text x="650" y="120" class="freq-count">1</text><text x="665" y="120" class="freq-pattern">5-5</text><use xlink:href="#checkmark" x="720" y="110" width="12" height="12"/>
          <text x="650" y="150" class="freq-count">1</text><text x="665" y="150" class="freq-pattern">5-4</text><use xlink:href="#checkmark" x="720" y="140" width="12" height="12"/>
          <text x="650" y="180" class="freq-count">1</text><text x="665" y="180" class="freq-pattern">5 7 4</text><use xlink:href="#checkmark" x="740" y="170" width="12" height="12"/>
          <text x="650" y="210" class="freq-count">1</text><text x="665" y="210" class="freq-pattern">5 3 6</text><use xlink:href="#checkmark" x="740" y="200" width="12" height="12"/>
          <text x="650" y="240" class="freq-count">1</text><text x="665" y="240" class="freq-pattern">5 3 5</text><use xlink:href="#checkmark" x="740" y="230" width="12" height="12"/>
          <text x="650" y="270" class="freq-count">1</text><text x="665" y="270" class="freq-pattern">5 2 4</text><use xlink:href="#checkmark" x="740" y="260" width="12" height="12"/>
          <text x="650" y="300" class="freq-count">1</text><text x="665" y="300" class="freq-pattern">5 2</text><use xlink:href="#checkmark" x="720" y="290" width="12" height="12"/>
          <text x="650" y="330" class="freq-count">1</text><text x="665" y="330" class="freq-pattern">4-1-7</text><use xlink:href="#checkmark" x="740" y="320" width="12" height="12"/>
          <text x="650" y="360" class="freq-count">1</text><text x="665" y="360" class="freq-pattern">4-1</text><use xlink:href="#checkmark" x="720" y="350" width="12" height="12"/>
          <text x="650" y="390" class="freq-count">1</text><text x="665" y="390" class="freq-pattern">4 8</text><use xlink:href="#checkmark" x="720" y="380" width="12" height="12"/>
          <text x="650" y="420" class="freq-count">1</text><text x="665" y="420" class="freq-pattern">4 3 5</text><use xlink:href="#checkmark" x="740" y="410" width="12" height="12"/>
          <text x="650" y="450" class="freq-count">1</text><text x="665" y="450" class="freq-pattern">4 3 4</text><use xlink:href="#checkmark" x="740" y="440" width="12" height="12"/>
          <text x="650" y="480" class="freq-count">1</text><text x="665" y="480" class="freq-pattern">4 2 6</text><use xlink:href="#checkmark" x="740" y="470" width="12" height="12"/>
          <text x="650" y="510" class="freq-count">1</text><text x="665" y="510" class="freq-pattern">4 2 5</text><use xlink:href="#checkmark" x="740" y="500" width="12" height="12"/>
          <text x="650" y="540" class="freq-count">1</text><text x="665" y="540" class="freq-pattern">4 2 3 3</text><use xlink:href="#checkmark" x="760" y="530" width="12" height="12"/>
          <text x="650" y="570" class="freq-count">1</text><text x="665" y="570" class="freq-pattern">4 2 3</text><use xlink:href="#checkmark" x="740" y="560" width="12" height="12"/>
          <text x="650" y="600" class="freq-count">1</text><text x="665" y="600" class="freq-pattern">4 12</text><use xlink:href="#checkmark" x="730" y="590" width="12" height="12"/>
          <text x="650" y="630" class="freq-count">1</text><text x="665" y="630" class="freq-pattern">3-3</text><use xlink:href="#checkmark" x="720" y="620" width="12" height="12"/>
          <text x="650" y="660" class="freq-count">1</text><text x="665" y="660" class="freq-pattern">3 9</text><use xlink:href="#checkmark" x="720" y="650" width="12" height="12"/>
          <text x="650" y="690" class="freq-count">1</text><text x="665" y="690" class="freq-pattern">3 5 5</text><use xlink:href="#checkmark" x="740" y="680" width="12" height="12"/>
          <text x="650" y="720" class="freq-count">1</text><text x="665" y="720" class="freq-pattern">3 5 4</text><use xlink:href="#checkmark" x="740" y="710" width="12" height="12"/>
          <text x="650" y="750" class="freq-count">1</text><text x="665" y="750" class="freq-pattern">3 4-2</text><use xlink:href="#checkmark" x="740" y="740" width="12" height="12"/>
          <text x="650" y="780" class="freq-count">1</text><text x="665" y="780" class="freq-pattern">3 3 7</text><use xlink:href="#checkmark" x="740" y="770" width="12" height="12"/>
          <text x="650" y="810" class="freq-count">1</text><text x="665" y="810" class="freq-pattern">3 3 4</text><use xlink:href="#checkmark" x="740" y="800" width="12" height="12"/>
          <text x="650" y="840" class="freq-count">1</text><text x="665" y="840" class="freq-pattern">3 2 4</text><use xlink:href="#checkmark" x="740" y="830" width="12" height="12"/>
          <text x="650" y="870" class="freq-count">1</text><text x="665" y="870" class="freq-pattern">3 2 3</text><use xlink:href="#checkmark" x="740" y="860" width="12" height="12"/>
          <!-- Column 4 Data -->
          <text x="950" y="0" class="freq-count">1</text><text x="965" y="0" class="freq-pattern">3 11</text><use xlink:href="#checkmark" x="1030" y="-10" width="12" height="12"/>
          <text x="950" y="30" class="freq-count">1</text><text x="965" y="30" class="freq-pattern">3 10</text><use xlink:href="#checkmark" x="1030" y="20" width="12" height="12"/>
          <text x="950" y="60" class="freq-count">1</text><text x="965" y="60" class="freq-pattern">2-2</text><use xlink:href="#checkmark" x="1020" y="50" width="12" height="12"/>
          <text x="950" y="90" class="freq-count">1</text><text x="965" y="90" class="freq-pattern">2 7</text><use xlink:href="#checkmark" x="1020" y="80" width="12" height="12"/>
          <text x="950" y="120" class="freq-count">1</text><text x="965" y="120" class="freq-pattern">15</text><use xlink:href="#checkmark" x="1020" y="110" width="12" height="12"/>
          <text x="950" y="150" class="freq-count">1</text><text x="965" y="150" class="freq-pattern">14</text><use xlink:href="#checkmark" x="1020" y="140" width="12" height="12"/>
          <text x="950" y="180" class="freq-count">1</text><text x="965" y="180" class="freq-pattern">10 8</text><use xlink:href="#checkmark" x="1030" y="170" width="12" height="12"/>
          <text x="950" y="210" class="freq-count">1</text><text x="965" y="210" class="freq-pattern">10 5</text><use xlink:href="#checkmark" x="1030" y="200" width="12" height="12"/>
          <text x="950" y="240" class="freq-count">1</text><text x="965" y="240" class="freq-pattern">10 4</text><use xlink:href="#checkmark" x="1030" y="230" width="12" height="12"/>
          <text x="950" y="270" class="freq-count">1</text><text x="965" y="270" class="freq-pattern">1-5</text><use xlink:href="#checkmark" x="1020" y="260" width="12" height="12"/>
        </g>
      </g>
    </g>

    <!-- Section: Word List Information -->
    <g transform="translate(0, 2650)">
      <text x="0" y="0" class="section-title">About This Word List</text>
      <line x1="0" y1="15" x2="600" y2="15" stroke="#007BFF" stroke-width="2"/>
      <text x="0" y="50" class="word-text" style="font-size: 16px;">
        <tspan x="0" dy="0">• Total Words: 3686 (English)</tspan>
        <tspan x="0" dy="1.5em">• Accuracy: Valid for the game version updated on November 9th, 2022 (including 2025).</tspan>
        <tspan x="0" dy="1.5em">• Source &amp; Full List: 
          <a xlink:href="https://github.com/Are-You-a-Person/skribbl-word-bank" fill="#007BFF" style="text-decoration: underline;">
            https://github.com/Are-You-a-Person/skribbl-word-bank
          </a>
        </tspan>
      </text>
    </g>

  </g>
  
  <!-- Footer -->
  <text x="700" y="2970" class="footer-text">Generated based on the analysis of skribbl_words_drawability_en.txt</text>

</svg>
